<?xml version="1.0" encoding="UTF-8" standalone="no"?>
<svg
   height="24"
   viewBox="0 -960 960 960"
   width="24"
   version="1.1"
   id="svg4"
   sodipodi:docname="photo.svg"
   inkscape:version="1.2.2 (b0a8486541, 2022-12-01)"
   xmlns:inkscape="http://www.inkscape.org/namespaces/inkscape"
   xmlns:sodipodi="http://sodipodi.sourceforge.net/DTD/sodipodi-0.dtd"
   xmlns="http://www.w3.org/2000/svg"
   xmlns:svg="http://www.w3.org/2000/svg">
  <defs
     id="defs8" />
  <sodipodi:namedview
     id="namedview6"
     pagecolor="#ffffff"
     bordercolor="#000000"
     borderopacity="0.25"
     inkscape:showpageshadow="2"
     inkscape:pageopacity="0.0"
     inkscape:pagecheckerboard="0"
     inkscape:deskcolor="#d1d1d1"
     showgrid="false"
     inkscape:zoom="25.958353"
     inkscape:cx="11.999991"
     inkscape:cy="5.2584229"
     inkscape:window-width="947"
     inkscape:window-height="1147"
     inkscape:window-x="5"
     inkscape:window-y="42"
     inkscape:window-maximized="1"
     inkscape:current-layer="svg4" />
  <path
     d="M360-400h400L622-580l-92 120-62-80-108 140Zm-40 160q-33 0-56.5-23.5T240-320v-480q0-33 23.5-56.5T320-880h480q33 0 56.5 23.5T880-800v480q0 33-23.5 56.5T800-240H320Zm0-80h480v-480H320v480ZM160-80q-33 0-56.5-23.5T80-160v-560h80v560h560v80H160Zm160-720v480-480Z"
     id="path2" />
  <path
     style="fill:#cccccc;stroke-width:0.0385232"
     d="m 1.9305262,5.9216698 c -0.063819,0.5517871 -0.011135,1.1260214 -0.029747,1.6865187 0.00341,4.1590335 -0.035709,8.3183985 0.010619,12.4772265 -0.00712,0.904822 0.7074558,1.746108 1.5760095,1.95417 1.2213748,0.07957 2.4483944,0.03427 3.6719724,0.05156 3.6167189,0.0042 7.2334419,0.0037 10.8501629,0.0056 0.206943,-0.112297 0.05202,-0.439917 0.10007,-0.639321 -0.01011,-0.498718 0.02025,-1.005779 -0.01524,-1.499265 -0.161182,-0.141921 -0.45176,-0.02783 -0.662607,-0.06461 -4.435339,0 -8.8706794,0 -13.3060191,0 C 4.11927,15.259117 4.1128253,10.624666 4.1064124,5.9902141 3.9936853,5.7836345 3.6665343,5.9383804 3.467092,5.8903697 2.9683738,5.9004777 2.4613129,5.8701204 1.9678269,5.9056066 l -0.035382,0.015237 z"
     id="path445"
     transform="matrix(40,0,0,40,0,-960)" />
  <path
     style="fill:#cccccc;stroke-width:0.0385232"
     d="M 10.843917,1.9036653 C 9.7049063,1.9231267 8.5606661,1.8681667 7.4253555,1.9754449 6.8311427,2.1124776 6.3617268,2.5939848 6.0834711,3.119753 5.9243316,3.3978585 5.8791574,3.7086059 5.908817,4.0255279 5.911977,8.0597081 5.87021,12.094234 5.916597,16.128203 c -0.0012,1.119503 1.0982925,2.054998 2.1972902,1.970048 4.0859698,0.02826 8.1732828,0.01694 12.2585928,0.006 0.864259,-0.20991 1.636675,-0.943914 1.70661,-1.857392 0.06195,-2.596273 0.02385,-5.194121 0.03559,-7.7910257 C 22.098553,6.848238 22.151152,5.2377204 22.057055,3.6321578 22.009674,3.0119327 21.540908,2.5138967 21.057016,2.1703184 20.583009,1.8484241 19.977224,1.9575656 19.438002,1.9159852 c -2.864552,-0.024997 -5.72944,-0.00797 -8.594085,-0.01232 z m 3.140021,2.2027471 c 1.963456,0 3.926913,0 5.89037,0 0,3.9269131 0,7.8538266 0,11.7807396 -3.926914,0 -7.853827,0 -11.7807398,0 0,-3.926913 0,-7.8538265 0,-11.7807396 1.9634568,0 3.9269128,0 5.8903698,0 z"
     id="path447"
     transform="matrix(40,0,0,40,0,-960)" />
  <path
     style="fill:#cccccc;stroke-width:0.0385232"
     d="m 15.498759,9.4333044 c -0.68532,0.8084306 -1.303717,1.6789936 -1.95972,2.5139426 -0.112332,0.0677 -0.218836,0.452816 -0.335423,0.288849 -0.500976,-0.583072 -0.932739,-1.225026 -1.451393,-1.792008 -0.202827,-0.058 -0.267001,0.241084 -0.399603,0.34212 -0.820083,1.054816 -1.648555,2.104076 -2.4461511,3.17576 -0.024501,0.246145 0.3159977,0.116098 0.4593336,0.151483 3.1161845,0.0052 6.2328475,0.02874 9.3487715,-0.01411 0.12995,0.0027 0.431894,0.0062 0.322229,-0.203131 -1.115048,-1.498419 -2.251759,-2.982202 -3.419615,-4.4397285 -0.03041,-0.040955 -0.07604,-0.021905 -0.118429,-0.023174 z"
     id="path449"
     transform="matrix(40,0,0,40,0,-960)" />
</svg>
